<svg xmlns="http://www.w3.org/2000/svg" viewBox="0 0 1024 1024" width="1024" height="1024">
  <defs>
    <linearGradient id="bg" x1="0" y1="0" x2="1" y2="1">
      <stop offset="0" stop-color="#B8DEAE"></stop>
      <stop offset="1" stop-color="#94C28D"></stop>
    </linearGradient>
    <linearGradient id="page" x1="0" y1="0" x2="0" y2="1">
      <stop offset="0" stop-color="#FFF8EE"></stop>
      <stop offset="1" stop-color="#FFE3BF"></stop>
    </linearGradient>
  </defs>
  <rect width="1024" height="1024" rx="224" ry="224" fill="url(#bg)"></rect>

  <path d="M 380 242 L 510 242 L 644 782 L 514 782 Z" fill="#3D3528" opacity="0.16" transform="translate(6 10)"></path>
  <path d="M 380 242 L 510 242 L 644 782 L 514 782 Z" fill="url(#page)"></path>
  <path d="M 472 242 L 510 242 L 644 782 L 606 782 Z" fill="#F4A261"></path>
  <rect x="242" y="242" width="138" height="540" rx="30.36" fill="url(#page)"></rect>
  <rect x="644" y="242" width="138" height="540" rx="30.36" fill="url(#page)"></rect>

  <g transform="translate(890 160) scale(0.5)">
    <path d="M 0 -68 L 14 -14 L 68 0 L 14 14 L 0 68 L -14 14 L -68 0 L -14 -14 Z" fill="#FFD166"></path>
    
  </g>
</svg>