<svg xmlns="http://www.w3.org/2000/svg" viewBox="0 0 64 64" width="64" height="64">
  <rect width="64" height="64" rx="14" fill="#A8D5A2"></rect>
  <circle cx="32" cy="27" r="16" fill="#FFD166"></circle>
  
  <path d="M 19 22 Q 22 18 27 18 Q 30 19 31 22 Q 28 20 24 21 Q 21 22 19 23 Z" fill="#3D3528"></path>
  <path d="M 45 22 Q 42 18 37 18 Q 34 19 33 22 Q 36 20 40 21 Q 43 22 45 23 Z" fill="#3D3528"></path>
  
  <circle cx="25" cy="27" r="6" fill="#FFF8EE" opacity="0.4" stroke="#3D3528" stroke-width="2"></circle>
  <circle cx="39" cy="27" r="6" fill="#FFF8EE" opacity="0.4" stroke="#3D3528" stroke-width="2"></circle>
  <circle cx="25" cy="27" r="1.8" fill="#3D3528"></circle>
  <circle cx="39" cy="27" r="1.8" fill="#3D3528"></circle>
  <line x1="30" y1="27" x2="34" y2="27" stroke="#3D3528" stroke-width="2" stroke-linecap="round"></line>
  
  <ellipse cx="32" cy="34" rx="5" ry="6.5" fill="#F4A261"></ellipse>
  
  <ellipse cx="27" cy="42" rx="9" ry="3.5" fill="#3D3528"></ellipse>
  <ellipse cx="37" cy="42" rx="9" ry="3.5" fill="#3D3528"></ellipse>
  <ellipse cx="32" cy="41.5" rx="4" ry="2.5" fill="#3D3528"></ellipse>
  
  <rect x="10" y="50" width="20" height="10" rx="2" fill="#FFF8EE"></rect>
  <rect x="34" y="50" width="20" height="10" rx="2" fill="#FFF8EE"></rect>
  <rect x="31" y="48" width="2" height="14" fill="#F4A261"></rect>
</svg>